<svg width="16" height="16" viewBox="0 0 16 16" fill="none" xmlns="http://www.w3.org/2000/svg">
<path fill-rule="evenodd" clip-rule="evenodd" d="M8 16C3.589 16 0 12.411 0 7.99998C0 3.58898 3.589 0.000976562 8 0.000976562C12.411 0.000976562 16 3.58898 16 7.99998C16 12.411 12.411 16 8 16ZM8 1.99998C4.691 1.99998 2 4.69098 2 7.99998C2 11.309 4.691 14 8 14C11.309 14 14 11.309 14 7.99998C14 4.69098 11.309 1.99998 8 1.99998ZM10.707 10.707C10.512 10.902 10.256 11 10 11C9.744 11 9.488 10.902 9.293 10.707L8 9.41398L6.707 10.707C6.512 10.902 6.256 11 6 11C5.744 11 5.488 10.902 5.293 10.707C4.902 10.317 4.902 9.68398 5.293 9.29298L6.586 7.99998L5.293 6.70698C4.902 6.31698 4.902 5.68498 5.293 5.29298C5.684 4.90298 6.316 4.90298 6.707 5.29298L8 6.58598L9.293 5.29298C9.684 4.90298 10.316 4.90298 10.707 5.29298C11.098 5.68498 11.098 6.31698 10.707 6.70698L9.414 7.99998L10.707 9.29298C11.098 9.68398 11.098 10.317 10.707 10.707Z" fill="#B3B3B3"/>
</svg>
