<svg width="222" height="200" viewBox="0 0 222 200" fill="none" xmlns="http://www.w3.org/2000/svg">
<path d="M11.9492 165.551H5.52734V174H0.851562V154.898H5.52734V162.68H11.9492V154.898H16.625V174H11.9492V165.551ZM26.0469 162.457C25.1953 162.457 24.4102 162.547 23.6914 162.727C22.9805 162.906 22.2617 163.164 21.5352 163.5L20.5039 160.887C21.2305 160.434 22.0703 160.094 23.0234 159.867C23.9844 159.633 25.043 159.516 26.1992 159.516C27.2539 159.516 28.1562 159.652 28.9062 159.926C29.6641 160.191 30.2852 160.59 30.7695 161.121C31.2539 161.652 31.6094 162.309 31.8359 163.09C32.0703 163.871 32.1875 164.77 32.1875 165.785V174H28.7539L28.1562 172.219C27.9375 172.594 27.707 172.914 27.4648 173.18C27.2227 173.438 26.957 173.652 26.668 173.824C26.3789 173.996 26.0586 174.121 25.707 174.199C25.3633 174.277 24.9766 174.316 24.5469 174.316C23.7734 174.316 23.082 174.215 22.4727 174.012C21.8633 173.809 21.3438 173.508 20.9141 173.109C20.4922 172.711 20.168 172.219 19.9414 171.633C19.7148 171.047 19.6016 170.371 19.6016 169.605C19.6016 168.832 19.75 168.168 20.0469 167.613C20.3516 167.051 20.793 166.59 21.3711 166.23C21.9492 165.863 22.6602 165.594 23.5039 165.422C24.3477 165.242 25.3164 165.152 26.4102 165.152C26.6367 165.152 26.8633 165.16 27.0898 165.176C27.3242 165.191 27.5586 165.219 27.793 165.258C27.793 164.945 27.7773 164.625 27.7461 164.297C27.7227 163.969 27.6523 163.668 27.5352 163.395C27.4258 163.121 27.2539 162.898 27.0195 162.727C26.7852 162.547 26.4609 162.457 26.0469 162.457ZM25.707 171.34C26.5352 171.34 27.2305 170.961 27.793 170.203V167.508C27.5352 167.492 27.3125 167.477 27.125 167.461C26.9375 167.445 26.8281 167.438 26.7969 167.438C26.2344 167.438 25.7734 167.48 25.4141 167.566C25.0547 167.645 24.7734 167.762 24.5703 167.918C24.3672 168.066 24.2266 168.254 24.1484 168.48C24.0703 168.699 24.0312 168.949 24.0312 169.23C24.0312 169.879 24.1719 170.395 24.4531 170.777C24.7422 171.152 25.1602 171.34 25.707 171.34ZM50.0586 174H45.6406V162.891H40.4258V174H36.0078V159.961H50.0586V174ZM59.6445 171.316C60.0586 171.316 60.4219 171.238 60.7344 171.082C61.0469 170.918 61.3086 170.66 61.5195 170.309C61.7305 169.957 61.8906 169.504 62 168.949C62.1094 168.387 62.1641 167.707 62.1641 166.91C62.1641 166.121 62.1094 165.445 62 164.883C61.8906 164.312 61.7305 163.848 61.5195 163.488C61.3086 163.129 61.0469 162.867 60.7344 162.703C60.4219 162.531 60.0586 162.445 59.6445 162.445C59.2305 162.445 58.8672 162.531 58.5547 162.703C58.2422 162.867 57.9805 163.129 57.7695 163.488C57.5664 163.848 57.4102 164.309 57.3008 164.871C57.1992 165.434 57.1484 166.113 57.1484 166.91C57.1484 167.238 57.1562 167.574 57.1719 167.918C57.1875 168.262 57.2227 168.598 57.2773 168.926C57.3398 169.246 57.4258 169.551 57.5352 169.84C57.6445 170.121 57.7891 170.371 57.9688 170.59C58.1562 170.809 58.3867 170.984 58.6602 171.117C58.9336 171.242 59.2617 171.309 59.6445 171.316ZM66.5703 166.945C66.5703 168.133 66.4141 169.184 66.1016 170.098C65.7969 171.012 65.3477 171.781 64.7539 172.406C64.1602 173.023 63.4336 173.492 62.5742 173.812C61.7227 174.133 60.7461 174.293 59.6445 174.293C58.5508 174.293 57.5742 174.133 56.7148 173.812C55.8555 173.492 55.1289 173.023 54.5352 172.406C53.9414 171.781 53.4883 171.012 53.1758 170.098C52.8633 169.184 52.707 168.133 52.707 166.945C52.707 165.742 52.8633 164.68 53.1758 163.758C53.4961 162.828 53.9531 162.051 54.5469 161.426C55.1406 160.793 55.8672 160.316 56.7266 159.996C57.5859 159.668 58.5547 159.504 59.6328 159.504C60.7109 159.504 61.6758 159.668 62.5273 159.996C63.3867 160.316 64.1133 160.793 64.707 161.426C65.3086 162.051 65.7695 162.828 66.0898 163.758C66.4102 164.68 66.5703 165.742 66.5703 166.945ZM87.3711 159.961V174H83.457V164.52L80.2461 174H76.3086L73.25 164.52V174H69.3359V159.961H75.207L78.3477 169.172L81.5 159.961H87.3711ZM105.582 174H101.258V165.562L95.3398 172.266V174H91.0391V159.949H95.3398V166.98L101.34 159.949H105.582V174ZM113.645 165.281H118.859V159.961H123.324V174H118.906V168.223H113.691V174H109.273V159.961H113.645V165.281ZM132.688 162.457C131.836 162.457 131.051 162.547 130.332 162.727C129.621 162.906 128.902 163.164 128.176 163.5L127.145 160.887C127.871 160.434 128.711 160.094 129.664 159.867C130.625 159.633 131.684 159.516 132.84 159.516C133.895 159.516 134.797 159.652 135.547 159.926C136.305 160.191 136.926 160.59 137.41 161.121C137.895 161.652 138.25 162.309 138.477 163.09C138.711 163.871 138.828 164.77 138.828 165.785V174H135.395L134.797 172.219C134.578 172.594 134.348 172.914 134.105 173.18C133.863 173.438 133.598 173.652 133.309 173.824C133.02 173.996 132.699 174.121 132.348 174.199C132.004 174.277 131.617 174.316 131.188 174.316C130.414 174.316 129.723 174.215 129.113 174.012C128.504 173.809 127.984 173.508 127.555 173.109C127.133 172.711 126.809 172.219 126.582 171.633C126.355 171.047 126.242 170.371 126.242 169.605C126.242 168.832 126.391 168.168 126.688 167.613C126.992 167.051 127.434 166.59 128.012 166.23C128.59 165.863 129.301 165.594 130.145 165.422C130.988 165.242 131.957 165.152 133.051 165.152C133.277 165.152 133.504 165.16 133.73 165.176C133.965 165.191 134.199 165.219 134.434 165.258C134.434 164.945 134.418 164.625 134.387 164.297C134.363 163.969 134.293 163.668 134.176 163.395C134.066 163.121 133.895 162.898 133.66 162.727C133.426 162.547 133.102 162.457 132.688 162.457ZM132.348 171.34C133.176 171.34 133.871 170.961 134.434 170.203V167.508C134.176 167.492 133.953 167.477 133.766 167.461C133.578 167.445 133.469 167.438 133.438 167.438C132.875 167.438 132.414 167.48 132.055 167.566C131.695 167.645 131.414 167.762 131.211 167.918C131.008 168.066 130.867 168.254 130.789 168.48C130.711 168.699 130.672 168.949 130.672 169.23C130.672 169.879 130.812 170.395 131.094 170.777C131.383 171.152 131.801 171.34 132.348 171.34ZM157.051 174H152.633V162.891H149.199L148.754 167.297C148.645 168.281 148.441 169.184 148.145 170.004C147.855 170.824 147.41 171.527 146.809 172.113C146.207 172.699 145.418 173.156 144.441 173.484C143.473 173.812 142.262 173.977 140.809 173.977V170.156C141.309 170.156 141.777 170.121 142.215 170.051C142.652 169.98 143.039 169.84 143.375 169.629C143.711 169.418 143.988 169.125 144.207 168.75C144.426 168.367 144.57 167.863 144.641 167.238L145.426 159.961H157.051V174ZM166.613 171.316C167.027 171.316 167.391 171.238 167.703 171.082C168.016 170.918 168.277 170.66 168.488 170.309C168.699 169.957 168.859 169.504 168.969 168.949C169.078 168.387 169.133 167.707 169.133 166.91C169.133 166.121 169.078 165.445 168.969 164.883C168.859 164.312 168.699 163.848 168.488 163.488C168.277 163.129 168.016 162.867 167.703 162.703C167.391 162.531 167.027 162.445 166.613 162.445C166.199 162.445 165.836 162.531 165.523 162.703C165.211 162.867 164.949 163.129 164.738 163.488C164.535 163.848 164.379 164.309 164.27 164.871C164.168 165.434 164.117 166.113 164.117 166.91C164.117 167.238 164.125 167.574 164.141 167.918C164.156 168.262 164.191 168.598 164.246 168.926C164.309 169.246 164.395 169.551 164.504 169.84C164.613 170.121 164.758 170.371 164.938 170.59C165.125 170.809 165.355 170.984 165.629 171.117C165.902 171.242 166.23 171.309 166.613 171.316ZM173.539 166.945C173.539 168.133 173.383 169.184 173.07 170.098C172.766 171.012 172.316 171.781 171.723 172.406C171.129 173.023 170.402 173.492 169.543 173.812C168.691 174.133 167.715 174.293 166.613 174.293C165.52 174.293 164.543 174.133 163.684 173.812C162.824 173.492 162.098 173.023 161.504 172.406C160.91 171.781 160.457 171.012 160.145 170.098C159.832 169.184 159.676 168.133 159.676 166.945C159.676 165.742 159.832 164.68 160.145 163.758C160.465 162.828 160.922 162.051 161.516 161.426C162.109 160.793 162.836 160.316 163.695 159.996C164.555 159.668 165.523 159.504 166.602 159.504C167.68 159.504 168.645 159.668 169.496 159.996C170.355 160.316 171.082 160.793 171.676 161.426C172.277 162.051 172.738 162.828 173.059 163.758C173.379 164.68 173.539 165.742 173.539 166.945ZM184.203 167.543V174H188.562V159.961H184.121V165.598C183.855 165.934 183.562 166.199 183.242 166.395C182.93 166.59 182.551 166.688 182.105 166.688C181.754 166.688 181.465 166.629 181.238 166.512C181.012 166.387 180.832 166.215 180.699 165.996C180.566 165.777 180.473 165.516 180.418 165.211C180.371 164.906 180.348 164.574 180.348 164.215V159.961H175.977V163.875C175.977 165.781 176.398 167.219 177.242 168.188C178.086 169.148 179.395 169.629 181.168 169.629C181.566 169.629 182.109 169.461 182.797 169.125C183.484 168.789 183.953 168.262 184.203 167.543ZM198.125 159.961V165.141H199.18L203.141 159.961H208.121L204.102 165.047C203.922 165.273 203.699 165.496 203.434 165.715C203.176 165.934 202.902 166.133 202.613 166.312C202.324 166.484 202.031 166.625 201.734 166.734C201.445 166.844 201.18 166.906 200.938 166.922C201.164 166.984 201.402 167.055 201.652 167.133C201.91 167.211 202.176 167.328 202.449 167.484C202.723 167.641 203.012 167.852 203.316 168.117C203.621 168.375 203.938 168.719 204.266 169.148L208.027 174H203.141L199.344 168.492H198.125V174H194.094V159.961H198.125ZM215.727 162.457C214.875 162.457 214.09 162.547 213.371 162.727C212.66 162.906 211.941 163.164 211.215 163.5L210.184 160.887C210.91 160.434 211.75 160.094 212.703 159.867C213.664 159.633 214.723 159.516 215.879 159.516C216.934 159.516 217.836 159.652 218.586 159.926C219.344 160.191 219.965 160.59 220.449 161.121C220.934 161.652 221.289 162.309 221.516 163.09C221.75 163.871 221.867 164.77 221.867 165.785V174H218.434L217.836 172.219C217.617 172.594 217.387 172.914 217.145 173.18C216.902 173.438 216.637 173.652 216.348 173.824C216.059 173.996 215.738 174.121 215.387 174.199C215.043 174.277 214.656 174.316 214.227 174.316C213.453 174.316 212.762 174.215 212.152 174.012C211.543 173.809 211.023 173.508 210.594 173.109C210.172 172.711 209.848 172.219 209.621 171.633C209.395 171.047 209.281 170.371 209.281 169.605C209.281 168.832 209.43 168.168 209.727 167.613C210.031 167.051 210.473 166.59 211.051 166.23C211.629 165.863 212.34 165.594 213.184 165.422C214.027 165.242 214.996 165.152 216.09 165.152C216.316 165.152 216.543 165.16 216.77 165.176C217.004 165.191 217.238 165.219 217.473 165.258C217.473 164.945 217.457 164.625 217.426 164.297C217.402 163.969 217.332 163.668 217.215 163.395C217.105 163.121 216.934 162.898 216.699 162.727C216.465 162.547 216.141 162.457 215.727 162.457ZM215.387 171.34C216.215 171.34 216.91 170.961 217.473 170.203V167.508C217.215 167.492 216.992 167.477 216.805 167.461C216.617 167.445 216.508 167.438 216.477 167.438C215.914 167.438 215.453 167.48 215.094 167.566C214.734 167.645 214.453 167.762 214.25 167.918C214.047 168.066 213.906 168.254 213.828 168.48C213.75 168.699 213.711 168.949 213.711 169.23C213.711 169.879 213.852 170.395 214.133 170.777C214.422 171.152 214.84 171.34 215.387 171.34Z" fill="#C95F3E"/>
<path d="M44.962 186.653C45.1007 186.644 45.378 186.592 45.794 186.497C46.184 186.41 46.5177 186.345 46.795 186.302C47.0723 186.259 47.341 186.237 47.601 186.237C48.6843 186.237 49.5163 186.419 50.097 186.783C50.6777 187.147 50.968 187.697 50.968 188.434C50.968 189.127 50.747 189.682 50.305 190.098C49.8717 190.514 49.3473 190.783 48.732 190.904C49.538 190.921 50.1577 191.142 50.591 191.567C51.033 191.983 51.254 192.516 51.254 193.166C51.254 194.102 50.9637 194.821 50.383 195.324C49.811 195.827 48.8967 196.078 47.64 196.078C47.12 196.078 46.6607 196.035 46.262 195.948C45.8633 195.861 45.547 195.783 45.313 195.714C45.0877 195.636 44.949 195.588 44.897 195.571L45.131 193.322H45.781L46.145 195.012C46.561 195.237 47.1417 195.35 47.887 195.35C48.4677 195.35 48.9053 195.177 49.2 194.83C49.5033 194.483 49.655 193.963 49.655 193.27C49.655 192.733 49.4947 192.282 49.174 191.918C48.8533 191.554 48.303 191.372 47.523 191.372H46.613V190.644H47.367C47.731 190.644 48.0733 190.57 48.394 190.423C48.7233 190.276 48.9877 190.05 49.187 189.747C49.3863 189.435 49.486 189.058 49.486 188.616C49.486 188.035 49.3213 187.611 48.992 187.342C48.6713 187.073 48.225 186.939 47.653 186.939C47.2717 186.939 46.9467 186.987 46.678 187.082C46.418 187.177 46.2447 187.299 46.158 187.446L45.911 188.655H45.092L44.962 186.653ZM52.4942 194.05C52.4942 193.235 52.9015 192.637 53.7162 192.256C54.5308 191.866 55.5622 191.658 56.8102 191.632V191.268C56.8102 190.861 56.7668 190.54 56.6802 190.306C56.5935 190.072 56.4418 189.903 56.2252 189.799C56.0172 189.686 55.7182 189.63 55.3282 189.63C54.8862 189.63 54.4875 189.695 54.1322 189.825C53.7855 189.946 53.4388 190.098 53.0922 190.28L52.7672 189.604C52.8798 189.509 53.0878 189.383 53.3912 189.227C53.6945 189.071 54.0455 188.932 54.4442 188.811C54.8428 188.69 55.2415 188.629 55.6402 188.629C56.2555 188.629 56.7408 188.716 57.0962 188.889C57.4602 189.054 57.7202 189.322 57.8762 189.695C58.0322 190.068 58.1102 190.566 58.1102 191.19V195.363H58.8772V195.935C58.7038 195.978 58.4828 196.022 58.2142 196.065C57.9542 196.108 57.7245 196.13 57.5252 196.13C57.2825 196.13 57.1178 196.091 57.0312 196.013C56.9445 195.944 56.9012 195.783 56.9012 195.532V195.103C56.6412 195.363 56.3205 195.601 55.9392 195.818C55.5665 196.035 55.1418 196.143 54.6652 196.143C54.0412 196.143 53.5212 195.965 53.1052 195.61C52.6978 195.246 52.4942 194.726 52.4942 194.05ZM55.2242 195.259C55.4495 195.259 55.7095 195.19 56.0042 195.051C56.2988 194.912 56.5675 194.748 56.8102 194.557V192.321C55.8655 192.321 55.1505 192.468 54.6652 192.763C54.1885 193.049 53.9502 193.426 53.9502 193.894C53.9502 194.362 54.0628 194.709 54.2882 194.934C54.5222 195.151 54.8342 195.259 55.2242 195.259ZM66.8143 192.139C66.8143 192.876 66.6626 193.552 66.3593 194.167C66.056 194.774 65.6226 195.255 65.0593 195.61C64.496 195.965 63.8373 196.143 63.0833 196.143C62.8753 196.143 62.65 196.126 62.4073 196.091C62.1646 196.056 61.9696 196.013 61.8223 195.961L61.8613 197.053V198.366L63.2133 198.509V199.146H59.5863V198.509L60.5223 198.366V189.786L59.5733 189.552V188.85L61.4193 188.616H61.4453L61.7183 188.85V189.617C61.9783 189.331 62.299 189.088 62.6803 188.889C63.0703 188.69 63.5036 188.59 63.9803 188.59C64.4916 188.59 64.9596 188.716 65.3843 188.967C65.8176 189.218 66.1643 189.608 66.4243 190.137C66.6843 190.666 66.8143 191.333 66.8143 192.139ZM63.4473 189.5C63.118 189.5 62.8103 189.569 62.5243 189.708C62.2383 189.847 62.0173 189.998 61.8613 190.163V195.064C61.922 195.168 62.0736 195.263 62.3163 195.35C62.5676 195.428 62.8406 195.467 63.1353 195.467C63.8026 195.467 64.34 195.203 64.7473 194.674C65.1633 194.145 65.3713 193.348 65.3713 192.282C65.3713 191.346 65.1893 190.648 64.8253 190.189C64.47 189.73 64.0106 189.5 63.4473 189.5ZM68.9974 199.237C68.85 199.237 68.7027 199.228 68.5554 199.211C68.4167 199.194 68.317 199.168 68.2564 199.133V198.002C68.3084 198.037 68.408 198.063 68.5554 198.08C68.7114 198.097 68.8587 198.106 68.9974 198.106C69.4134 198.106 69.7774 197.959 70.0894 197.664C70.41 197.378 70.7177 196.823 71.0124 196H70.3884L67.9184 189.565L67.3204 189.396V188.785H70.4534V189.396L69.4524 189.552L70.7264 193.387L71.3244 195.285L71.8834 193.374L73.0404 189.552L72.1694 189.396V188.785H74.7824V189.396L74.1324 189.552C72.8584 193.452 72.1087 195.666 71.8834 196.195C71.5887 196.94 71.32 197.521 71.0774 197.937C70.8347 198.362 70.5487 198.682 70.2194 198.899C69.89 199.124 69.4827 199.237 68.9974 199.237ZM81.2988 185.899C81.2468 186.15 81.1732 186.337 81.0778 186.458C80.9825 186.571 80.8265 186.631 80.6098 186.64C78.9372 186.761 77.8625 187.008 77.3858 187.381C77.1432 187.563 76.9308 187.849 76.7488 188.239C76.5668 188.62 76.4585 189.136 76.4238 189.786C76.6925 189.465 77.0695 189.192 77.5548 188.967C78.0402 188.742 78.5168 188.629 78.9848 188.629C80.8742 188.629 81.8188 189.751 81.8188 191.996C81.8188 193.322 81.5372 194.34 80.9738 195.051C80.4105 195.753 79.6045 196.104 78.5558 196.104C77.5332 196.104 76.7228 195.688 76.1248 194.856C75.5355 194.015 75.2408 192.737 75.2408 191.021C75.2408 189.946 75.3968 189.071 75.7088 188.395C76.0208 187.719 76.4238 187.16 76.9178 186.718C77.2298 186.441 77.6328 186.215 78.1268 186.042C78.6208 185.869 79.1018 185.756 79.5698 185.704C79.9425 185.661 80.1938 185.617 80.3238 185.574C80.4625 185.531 80.5535 185.44 80.5968 185.301L80.7788 184.742H81.5068L81.2988 185.899ZM78.6468 189.461C78.3348 189.461 78.0445 189.517 77.7758 189.63C77.5072 189.734 77.2775 189.86 77.0868 190.007C76.9048 190.154 76.7792 190.289 76.7098 190.41C76.7098 191.615 76.7748 192.585 76.9048 193.322C77.0348 194.059 77.2342 194.6 77.5028 194.947C77.7715 195.285 78.1225 195.454 78.5558 195.454C79.2145 195.454 79.6782 195.164 79.9468 194.583C80.2242 194.002 80.3628 193.14 80.3628 191.996C80.3628 191.069 80.2285 190.414 79.9598 190.033C79.6998 189.652 79.2622 189.461 78.6468 189.461ZM86.2417 188.785V189.422L85.1757 189.604V193.959L85.9557 192.932L88.8937 189.825V189.604L87.9317 189.422V188.785H91.1817V189.422L90.2457 189.604V195.246L91.2207 195.363V196H87.8537V195.363L88.8937 195.246V190.826L88.0357 192.022L85.1757 194.999V195.259L86.0337 195.363V196H82.8617V195.363L83.8367 195.246V189.604L82.8747 189.422V188.785H86.2417ZM95.3245 192.438C95.3245 191.719 95.4632 191.069 95.7405 190.488C96.0265 189.907 96.4425 189.448 96.9885 189.11C97.5432 188.763 98.2062 188.59 98.9775 188.59C99.3502 188.59 99.6708 188.625 99.9395 188.694C100.208 188.763 100.529 188.859 100.902 188.98L100.85 190.982H100.005L99.7185 189.656C99.6665 189.413 99.3372 189.292 98.7305 189.292C98.1238 189.292 97.6428 189.539 97.2875 190.033C96.9408 190.518 96.7675 191.212 96.7675 192.113C96.7675 193.136 96.9625 193.916 97.3525 194.453C97.7512 194.982 98.2668 195.246 98.8995 195.246C99.2635 195.246 99.6058 195.19 99.9265 195.077C100.256 194.964 100.538 194.83 100.772 194.674L101.019 195.194C100.785 195.437 100.438 195.658 99.9785 195.857C99.5278 196.048 99.0685 196.143 98.6005 196.143C97.8898 196.143 97.2875 195.983 96.7935 195.662C96.3082 195.341 95.9398 194.904 95.6885 194.349C95.4458 193.786 95.3245 193.149 95.3245 192.438ZM105.344 196.143C104.295 196.143 103.493 195.801 102.939 195.116C102.393 194.431 102.12 193.517 102.12 192.373C102.12 191.619 102.263 190.956 102.549 190.384C102.835 189.812 103.233 189.37 103.745 189.058C104.265 188.746 104.854 188.59 105.513 188.59C106.319 188.59 106.943 188.815 107.385 189.266C107.835 189.708 108.074 190.345 108.1 191.177C108.1 191.706 108.069 192.109 108.009 192.386H103.537C103.554 193.244 103.753 193.937 104.135 194.466C104.516 194.986 105.058 195.246 105.76 195.246C106.106 195.246 106.466 195.185 106.839 195.064C107.22 194.934 107.515 194.782 107.723 194.609L107.97 195.181C107.718 195.441 107.346 195.666 106.852 195.857C106.358 196.048 105.855 196.143 105.344 196.143ZM106.67 191.697C106.696 191.515 106.709 191.329 106.709 191.138C106.7 190.575 106.579 190.133 106.345 189.812C106.119 189.483 105.76 189.318 105.266 189.318C104.763 189.318 104.36 189.5 104.057 189.864C103.762 190.228 103.593 190.839 103.55 191.697H106.67ZM115.132 185.899C115.08 186.15 115.006 186.337 114.911 186.458C114.816 186.571 114.66 186.631 114.443 186.64C112.77 186.761 111.696 187.008 111.219 187.381C110.976 187.563 110.764 187.849 110.582 188.239C110.4 188.62 110.292 189.136 110.257 189.786C110.526 189.465 110.903 189.192 111.388 188.967C111.873 188.742 112.35 188.629 112.818 188.629C114.707 188.629 115.652 189.751 115.652 191.996C115.652 193.322 115.37 194.34 114.807 195.051C114.244 195.753 113.438 196.104 112.389 196.104C111.366 196.104 110.556 195.688 109.958 194.856C109.369 194.015 109.074 192.737 109.074 191.021C109.074 189.946 109.23 189.071 109.542 188.395C109.854 187.719 110.257 187.16 110.751 186.718C111.063 186.441 111.466 186.215 111.96 186.042C112.454 185.869 112.935 185.756 113.403 185.704C113.776 185.661 114.027 185.617 114.157 185.574C114.296 185.531 114.387 185.44 114.43 185.301L114.612 184.742H115.34L115.132 185.899ZM112.48 189.461C112.168 189.461 111.878 189.517 111.609 189.63C111.34 189.734 111.111 189.86 110.92 190.007C110.738 190.154 110.612 190.289 110.543 190.41C110.543 191.615 110.608 192.585 110.738 193.322C110.868 194.059 111.067 194.6 111.336 194.947C111.605 195.285 111.956 195.454 112.389 195.454C113.048 195.454 113.511 195.164 113.78 194.583C114.057 194.002 114.196 193.14 114.196 191.996C114.196 191.069 114.062 190.414 113.793 190.033C113.533 189.652 113.095 189.461 112.48 189.461ZM119.88 196.143C118.831 196.143 118.029 195.801 117.475 195.116C116.929 194.431 116.656 193.517 116.656 192.373C116.656 191.619 116.799 190.956 117.085 190.384C117.371 189.812 117.769 189.37 118.281 189.058C118.801 188.746 119.39 188.59 120.049 188.59C120.855 188.59 121.479 188.815 121.921 189.266C122.371 189.708 122.61 190.345 122.636 191.177C122.636 191.706 122.605 192.109 122.545 192.386H118.073C118.09 193.244 118.289 193.937 118.671 194.466C119.052 194.986 119.594 195.246 120.296 195.246C120.642 195.246 121.002 195.185 121.375 195.064C121.756 194.934 122.051 194.782 122.259 194.609L122.506 195.181C122.254 195.441 121.882 195.666 121.388 195.857C120.894 196.048 120.391 196.143 119.88 196.143ZM121.206 191.697C121.232 191.515 121.245 191.329 121.245 191.138C121.236 190.575 121.115 190.133 120.881 189.812C120.655 189.483 120.296 189.318 119.802 189.318C119.299 189.318 118.896 189.5 118.593 189.864C118.298 190.228 118.129 190.839 118.086 191.697H121.206ZM130.257 188.785V189.422L129.178 189.604V191.879H132.766V189.604L131.674 189.422V188.785H135.054V189.422L134.105 189.604V195.246L135.106 195.363V196H131.648V195.363L132.766 195.246V192.633H129.178V195.246L130.296 195.363V196H126.851V195.363L127.839 195.246V189.604L126.864 189.422V188.785H130.257ZM136.271 194.05C136.271 193.235 136.678 192.637 137.493 192.256C138.307 191.866 139.339 191.658 140.587 191.632V191.268C140.587 190.861 140.543 190.54 140.457 190.306C140.37 190.072 140.218 189.903 140.002 189.799C139.794 189.686 139.495 189.63 139.105 189.63C138.663 189.63 138.264 189.695 137.909 189.825C137.562 189.946 137.215 190.098 136.869 190.28L136.544 189.604C136.656 189.509 136.864 189.383 137.168 189.227C137.471 189.071 137.822 188.932 138.221 188.811C138.619 188.69 139.018 188.629 139.417 188.629C140.032 188.629 140.517 188.716 140.873 188.889C141.237 189.054 141.497 189.322 141.653 189.695C141.809 190.068 141.887 190.566 141.887 191.19V195.363H142.654V195.935C142.48 195.978 142.259 196.022 141.991 196.065C141.731 196.108 141.501 196.13 141.302 196.13C141.059 196.13 140.894 196.091 140.808 196.013C140.721 195.944 140.678 195.783 140.678 195.532V195.103C140.418 195.363 140.097 195.601 139.716 195.818C139.343 196.035 138.918 196.143 138.442 196.143C137.818 196.143 137.298 195.965 136.882 195.61C136.474 195.246 136.271 194.726 136.271 194.05ZM139.001 195.259C139.226 195.259 139.486 195.19 139.781 195.051C140.075 194.912 140.344 194.748 140.587 194.557V192.321C139.642 192.321 138.927 192.468 138.442 192.763C137.965 193.049 137.727 193.426 137.727 193.894C137.727 194.362 137.839 194.709 138.065 194.934C138.299 195.151 138.611 195.259 139.001 195.259ZM150.062 188.785V189.422L148.983 189.604V191.879H152.571V189.604L151.479 189.422V188.785H154.859V189.422L153.91 189.604V195.246L154.911 195.363V196H151.453V195.363L152.571 195.246V192.633H148.983V195.246L150.101 195.363V196H146.656V195.363L147.644 195.246V189.604L146.669 189.422V188.785H150.062ZM156.075 192.373C156.075 191.593 156.236 190.917 156.556 190.345C156.877 189.773 157.297 189.34 157.817 189.045C158.346 188.742 158.909 188.59 159.507 188.59C160.599 188.59 161.418 188.937 161.964 189.63C162.519 190.323 162.796 191.233 162.796 192.36C162.796 193.149 162.636 193.829 162.315 194.401C161.995 194.973 161.57 195.406 161.041 195.701C160.521 195.996 159.962 196.143 159.364 196.143C158.272 196.143 157.449 195.796 156.894 195.103C156.348 194.41 156.075 193.5 156.075 192.373ZM159.442 195.402C160.04 195.402 160.5 195.155 160.82 194.661C161.141 194.167 161.301 193.435 161.301 192.464C161.301 191.502 161.154 190.739 160.859 190.176C160.565 189.613 160.092 189.331 159.442 189.331C158.844 189.331 158.381 189.578 158.051 190.072C157.731 190.566 157.57 191.298 157.57 192.269C157.57 193.231 157.722 193.994 158.025 194.557C158.329 195.12 158.801 195.402 159.442 195.402ZM163.828 192.438C163.828 191.719 163.967 191.069 164.244 190.488C164.53 189.907 164.946 189.448 165.492 189.11C166.047 188.763 166.71 188.59 167.481 188.59C167.854 188.59 168.175 188.625 168.443 188.694C168.712 188.763 169.033 188.859 169.405 188.98L169.353 190.982H168.508L168.222 189.656C168.17 189.413 167.841 189.292 167.234 189.292C166.628 189.292 166.147 189.539 165.791 190.033C165.445 190.518 165.271 191.212 165.271 192.113C165.271 193.136 165.466 193.916 165.856 194.453C166.255 194.982 166.771 195.246 167.403 195.246C167.767 195.246 168.11 195.19 168.43 195.077C168.76 194.964 169.041 194.83 169.275 194.674L169.522 195.194C169.288 195.437 168.942 195.658 168.482 195.857C168.032 196.048 167.572 196.143 167.104 196.143C166.394 196.143 165.791 195.983 165.297 195.662C164.812 195.341 164.444 194.904 164.192 194.349C163.95 193.786 163.828 193.149 163.828 192.438ZM171.702 199.237C171.555 199.237 171.408 199.228 171.26 199.211C171.122 199.194 171.022 199.168 170.961 199.133V198.002C171.013 198.037 171.113 198.063 171.26 198.08C171.416 198.097 171.564 198.106 171.702 198.106C172.118 198.106 172.482 197.959 172.794 197.664C173.115 197.378 173.423 196.823 173.717 196H173.093L170.623 189.565L170.025 189.396V188.785H173.158V189.396L172.157 189.552L173.431 193.387L174.029 195.285L174.588 193.374L175.745 189.552L174.874 189.396V188.785H177.487V189.396L176.837 189.552C175.563 193.452 174.814 195.666 174.588 196.195C174.294 196.94 174.025 197.521 173.782 197.937C173.54 198.362 173.254 198.682 172.924 198.899C172.595 199.124 172.188 199.237 171.702 199.237Z" fill="#808080"/>
<g clip-path="url(#clip0_268_24)">
<path d="M59.8041 56.8715L171.488 121.374C173.535 122.561 175.895 122.795 178.02 122.221C180.145 121.648 182.062 120.265 183.248 118.217C184.435 116.169 184.67 113.808 184.096 111.682C183.522 109.556 182.14 107.638 180.093 106.451L68.4223 41.9492L68.5136 41.7927C69.3741 40.3187 69.5436 38.623 69.1264 37.0839C68.7091 35.5447 67.7182 34.162 66.2449 33.3142L46.9095 22.1486C45.4362 21.2877 43.7413 21.1181 42.2028 21.5355C40.6643 21.9529 39.2822 22.9443 38.4348 24.4182L33.4542 33.0402L29.6471 39.6535L25.0577 47.6103C23.4932 50.3365 21.2506 52.4105 18.6691 53.767C15.9963 55.1627 12.9715 55.7888 9.94662 55.554C9.79017 55.541 9.64675 55.541 9.49029 55.5671C9.09915 55.4758 8.68193 55.4888 8.29079 55.6453C7.26079 56.0497 6.7523 57.2106 7.14344 58.2411C8.91662 62.8456 11.4721 67.1631 14.7446 70.985C17.8998 74.6764 21.733 77.8983 26.1529 80.4549C30.5859 83.0115 35.2796 84.7202 40.0645 85.6072C45.006 86.5333 50.0256 86.5855 54.9018 85.8159C55.997 85.6463 56.7402 84.6289 56.5707 83.5332C56.5055 83.1158 56.3099 82.7375 56.0361 82.4506C55.984 82.3071 55.9058 82.1767 55.8145 82.0462C54.0935 79.5418 53.1156 76.6069 52.9983 73.5938C52.8809 70.685 53.5589 67.6979 55.1365 64.9717L59.5303 57.3541L59.7259 57.015L59.8041 56.8715Z" fill="#5E0207"/>
<path fill-rule="evenodd" clip-rule="evenodd" d="M173.496 117.904L171.306 116.639C176.729 118.413 177.772 115.086 177.772 115.086L65.9059 52.0843L66.4144 45.4189L178.098 109.921C179.194 110.547 179.924 111.578 180.237 112.712C180.537 113.847 180.419 115.113 179.78 116.208C179.154 117.304 178.124 118.034 176.99 118.347C175.843 118.66 174.591 118.53 173.496 117.904Z" fill="#F69246"/>
<path d="M158.541 40.7753L159.063 41.6753L162.948 48.406L165.673 53.1279L166.768 55.0192C167.068 55.541 167.551 55.8932 168.098 56.0367C168.633 56.1801 169.233 56.128 169.741 55.828L183.196 48.0538C183.627 47.806 183.913 47.4016 184.031 46.9581C184.148 46.5146 184.096 46.0189 183.861 45.6015L179.845 38.6491L175.452 31.0184C175.204 30.588 174.813 30.301 174.356 30.1836C173.913 30.0662 173.418 30.1184 173.001 30.3532L159.219 38.323C158.789 38.5709 158.502 38.9622 158.385 39.4187C158.241 39.8622 158.294 40.3579 158.541 40.7753ZM197.173 62.7673C192.988 60.6673 190.146 56.5062 188.229 53.2061L186.599 50.3756C186.208 50.8191 185.726 51.2104 185.191 51.5235L171.749 59.2846H171.736L171.71 59.2976L171.397 59.4803C170.849 59.7933 170.289 60.002 169.702 60.1325L171.332 62.963C173.222 66.237 174.083 69.8371 174.004 73.372C176.377 73.1242 178.737 72.6546 181.071 71.9763C184.031 71.1024 186.964 69.8632 189.794 68.2197C191.567 67.2023 193.223 66.0674 194.761 64.8413C195.608 64.1891 196.404 63.4978 197.173 62.7673ZM209.429 62.4151C206.534 63.85 203.914 64.2935 201.567 64.0587C200.224 65.4544 198.79 66.7718 197.251 67.9979C195.556 69.3545 193.731 70.5937 191.814 71.7024C188.737 73.4764 185.517 74.846 182.218 75.8112C179.35 76.6591 176.43 77.1939 173.509 77.4417C173.131 79.0853 172.544 80.6897 171.762 82.2028C175.23 82.4767 178.737 82.3071 182.218 81.6549C186.547 80.8462 190.81 79.294 194.852 76.9591C198.894 74.6242 202.362 71.7024 205.231 68.3501C206.808 66.5109 208.216 64.5152 209.429 62.4151ZM187.316 43.5928L191.71 51.2104C193.366 54.0801 195.791 57.6541 199.077 59.2585C201.228 60.302 203.888 60.5107 207.134 59.0628C205.517 58.6715 203.94 58.0846 202.453 57.315C199.22 55.6193 196.404 53.0105 194.448 49.6191L189.859 41.6623L186.039 35.049L181.071 26.427C180.771 25.9052 180.289 25.553 179.741 25.4096C179.194 25.2661 178.594 25.3183 178.085 25.6183L176.312 26.6487C177.368 27.1314 178.281 27.9401 178.894 29.0097L183.288 36.6404L187.316 43.5928ZM163.183 56.8715L51.5119 121.374C49.465 122.561 47.1051 122.795 44.9799 122.221C42.8547 121.648 40.9381 120.265 39.7516 118.217C38.5651 116.169 38.3305 113.808 38.9041 111.682C39.4778 109.556 40.8598 107.638 42.9068 106.451L154.591 41.9492L154.5 41.7927C153.639 40.3187 153.47 38.623 153.887 37.0839C154.304 35.5447 155.295 34.162 156.768 33.3142L176.104 22.1486C177.577 21.2877 179.272 21.1181 180.81 21.5355C182.349 21.9529 183.731 22.9443 184.578 24.4182L189.559 33.0402L193.379 39.6535L197.968 47.6103C199.533 50.3365 201.775 52.4105 204.357 53.767C207.03 55.1627 210.055 55.7888 213.079 55.554C213.236 55.541 213.379 55.541 213.536 55.5671C213.927 55.4758 214.344 55.4888 214.735 55.6453C215.765 56.0497 216.274 57.2106 215.883 58.2411C214.109 62.8456 211.554 67.1631 208.281 70.985C205.126 74.6764 201.293 77.8983 196.873 80.4549C192.44 83.0115 187.747 84.7202 182.962 85.6072C178.02 86.5333 173.001 86.5855 168.124 85.8159C167.029 85.6463 166.286 84.6289 166.455 83.5332C166.521 83.1158 166.716 82.7375 166.99 82.4506C167.042 82.3071 167.12 82.1767 167.212 82.0462C168.933 79.5418 169.91 76.6069 170.028 73.5938C170.145 70.685 169.467 67.6979 167.89 64.9717L163.496 57.3541L163.3 57.015L163.183 56.8715Z" fill="#5E0207"/>
<path fill-rule="evenodd" clip-rule="evenodd" d="M49.504 117.904L51.6944 116.639C46.2706 118.413 45.2276 115.086 45.2276 115.086L157.094 52.0843L156.586 45.4189L44.9016 109.934C43.8064 110.56 43.0763 111.591 42.7634 112.725C42.4635 113.86 42.5808 115.126 43.2197 116.221C43.8455 117.317 44.8755 118.047 46.0099 118.36C47.1572 118.66 48.4089 118.53 49.504 117.904Z" fill="#F69246"/>
<path fill-rule="evenodd" clip-rule="evenodd" d="M63.9372 41.6753L60.0649 48.4059L57.3399 53.1278L56.2447 55.0192C55.9448 55.541 55.4624 55.8931 54.9148 56.0366C54.3803 56.1801 53.7805 56.1279 53.272 55.8279L39.8168 48.0538C39.3865 47.8059 39.0997 47.4016 38.9823 46.9581C38.865 46.5146 38.9171 46.0189 39.1518 45.6015L43.1675 38.6491L47.5614 31.0184C47.8091 30.588 48.2133 30.301 48.6566 30.1836C49.0999 30.0662 49.5953 30.1184 50.0125 30.3532L63.7938 38.323C64.224 38.5708 64.5108 38.9752 64.6282 39.4187C64.7455 39.8622 64.6934 40.3578 64.4587 40.7753L63.9372 41.6753Z" fill="#EE4C33"/>
<path fill-rule="evenodd" clip-rule="evenodd" d="M63.9372 41.6753L60.0649 48.4059L57.34 53.1278L56.2448 55.0192C55.9449 55.541 55.4625 55.8931 54.9149 56.0366C54.3803 56.1801 53.7806 56.1279 53.2721 55.8279L52.1117 55.1627C56.1405 48.3799 59.7259 43.3971 60.5343 41.0753C61.799 37.5012 57.9006 34.9446 57.0662 34.4359L63.8068 38.323C64.2371 38.5708 64.5239 38.9622 64.6413 39.4187C64.7586 39.8622 64.7065 40.3578 64.4718 40.7753L63.9372 41.6753Z" fill="#B82D18"/>
<path fill-rule="evenodd" clip-rule="evenodd" d="M37.7959 51.5365L51.2381 59.2976H51.2511L51.2772 59.3107L51.5901 59.4933C52.1377 59.8064 52.6984 60.0151 53.2851 60.1455L51.6553 62.976C49.7648 66.25 48.9043 69.8502 48.9825 73.3851C46.6096 73.1372 44.2497 72.6677 41.9159 71.9894C38.9563 71.1154 36.0227 69.8763 33.1934 68.2327C31.4203 67.2153 29.7644 66.0805 28.2259 64.8544C27.3915 64.1891 26.5831 63.4847 25.8139 62.7673C29.9991 60.6673 32.8414 56.5062 34.758 53.2061L36.3878 50.3756C36.7919 50.8321 37.2613 51.2235 37.7959 51.5365Z" fill="#EE4C33"/>
<path fill-rule="evenodd" clip-rule="evenodd" d="M37.7959 51.5365L50.0907 58.6454L51.2251 59.2976H51.2381L51.2642 59.3106L51.5771 59.4933C52.1247 59.8063 52.6853 60.015 53.272 60.1455L51.6423 62.976C49.7518 66.25 48.8912 69.8501 48.9695 73.385C47.1441 73.1894 45.3319 72.8763 43.5326 72.4328C45.0581 68.4414 46.8443 64.6847 48.6696 61.2281C42.1375 58.3715 34.758 53.2191 34.758 53.2191L36.3878 50.3886C36.7919 50.8321 37.2613 51.2234 37.7959 51.5365Z" fill="#B82D18"/>
<path fill-rule="evenodd" clip-rule="evenodd" d="M31.1856 71.7154C34.2626 73.4894 37.483 74.859 40.7816 75.8242C43.65 76.6721 46.5705 77.2069 49.491 77.4547C49.8691 79.0983 50.4559 80.7027 51.2381 82.2158C47.77 82.4897 44.2628 82.3201 40.7816 81.6679C36.453 80.8592 32.1895 79.307 28.1477 76.9721C24.106 74.6372 20.6378 71.7154 17.7695 68.3631C16.1788 66.4978 14.7707 64.5021 13.5582 62.4151C16.4526 63.8499 19.0733 64.2934 21.4201 64.0586C22.763 65.4543 24.1972 66.7718 25.7357 67.9979C27.4437 69.3545 29.269 70.6067 31.1856 71.7154Z" fill="white"/>
<path fill-rule="evenodd" clip-rule="evenodd" d="M31.4333 71.8459C34.432 73.5546 37.5742 74.8721 40.7946 75.8243C43.663 76.6721 46.5835 77.2069 49.504 77.4548C49.8821 79.0983 50.4688 80.7027 51.2511 82.2158C51.2511 82.2158 47.8352 82.2028 42.4504 80.8984C39.0736 76.7895 33.8062 73.3068 31.4333 71.8459Z" fill="#C3C5CB"/>
<path fill-rule="evenodd" clip-rule="evenodd" d="M35.6707 43.5927L31.2769 51.2104C29.621 54.08 27.196 57.6541 23.9104 59.2585C21.7591 60.302 19.0993 60.5107 15.8528 59.0628C17.4696 58.6715 19.0472 58.0845 20.5335 57.3149C23.7669 55.6192 26.5832 53.0104 28.5389 49.619L33.1283 41.6622L36.9484 35.049L41.929 26.4269C42.2288 25.9052 42.7112 25.553 43.2588 25.4095C43.8064 25.266 44.4062 25.3182 44.9147 25.6182L46.6878 26.6487C45.6318 27.1313 44.7191 27.94 44.1063 29.0096L39.7125 36.6403L35.6707 43.5927Z" fill="#B82D18"/>
<path d="M112.139 130.896H112.126C111.735 131.026 111.291 131.039 110.874 130.896C93.1816 125.078 64.6804 109.138 65.3323 87.2768C65.4627 82.8028 67.0011 78.6418 70.0129 75.0547C68.9308 74.1416 68.0312 73.0459 67.3401 71.7937C66.4275 70.1371 65.906 68.2327 65.906 66.2109C65.906 63.0152 67.1967 60.1325 69.2958 58.0324C71.3819 55.9454 74.2764 54.641 77.4707 54.641C78.4486 54.641 79.4003 54.7584 80.313 54.9932L80.4173 55.0192C80.4955 54.5497 80.5738 54.0801 80.652 53.6105C79.1135 51.7191 75.9844 46.6059 75.1369 35.7795C75.0587 34.7751 75.2282 33.8098 75.6193 32.9359C76.0104 32.0489 76.6232 31.2793 77.4316 30.6793C78.4877 29.8836 79.6089 29.1271 80.7693 28.4227C81.5777 17.9876 85.0067 11.1265 90.3132 6.7046C101.083 -2.26961 121.97 -2.26961 132.752 6.7046C138.059 11.1265 141.488 17.9876 142.296 28.4227C143.456 29.1271 144.578 29.8706 145.634 30.6793C146.442 31.2924 147.055 32.062 147.446 32.9359C147.837 33.8098 148.007 34.7751 147.928 35.7795C147.068 46.619 143.939 51.7191 142.413 53.6105C142.505 54.0801 142.583 54.5497 142.648 55.0192L142.752 54.9932C143.665 54.7584 144.617 54.641 145.595 54.641C148.789 54.641 151.67 55.9323 153.769 58.0324C155.855 60.1194 157.159 63.0152 157.159 66.2109C157.159 68.2327 156.638 70.1371 155.725 71.7937C155.034 73.0459 154.121 74.1416 153.052 75.0547C156.064 78.6418 157.603 82.8028 157.733 87.2768C158.32 109.125 129.818 125.065 112.139 130.896Z" fill="#5E0207"/>
<path fill-rule="evenodd" clip-rule="evenodd" d="M159.05 41.6753L162.935 48.4059L165.66 53.1278L166.755 55.0192C167.055 55.541 167.538 55.8931 168.085 56.0366C168.62 56.1801 169.219 56.1279 169.728 55.8279L183.183 48.0538C183.613 47.8059 183.9 47.4016 184.018 46.9581C184.135 46.5146 184.083 46.0189 183.848 45.6015L179.832 38.6491L175.439 31.0184C175.191 30.588 174.8 30.301 174.343 30.1836C173.9 30.0662 173.405 30.1184 172.987 30.3532L159.206 38.323C158.776 38.5708 158.489 38.9752 158.372 39.4187C158.254 39.8622 158.307 40.3578 158.541 40.7753L159.05 41.6753Z" fill="#EE4C33"/>
<path fill-rule="evenodd" clip-rule="evenodd" d="M159.05 41.6753L162.935 48.4059L165.66 53.1278L166.755 55.0192C167.055 55.541 167.538 55.8931 168.085 56.0366C168.62 56.1801 169.219 56.1279 169.728 55.8279L170.888 55.1627C166.86 48.3799 163.274 43.3971 162.466 41.0753C161.201 37.5012 165.099 34.9446 165.934 34.4359L159.193 38.323C158.763 38.5708 158.476 38.9622 158.359 39.4187C158.241 39.8622 158.294 40.3578 158.528 40.7753L159.05 41.6753Z" fill="#B82D18"/>
<path fill-rule="evenodd" clip-rule="evenodd" d="M185.191 51.5365L171.749 59.2976H171.736L171.71 59.3107L171.397 59.4933C170.849 59.8064 170.289 60.0151 169.702 60.1455L171.332 62.976C173.222 66.25 174.083 69.8502 174.004 73.3851C176.377 73.1372 178.737 72.6677 181.071 71.9894C184.031 71.1154 186.964 69.8763 189.794 68.2327C191.567 67.2153 193.223 66.0805 194.761 64.8544C195.595 64.1891 196.404 63.4847 197.173 62.7673C192.988 60.6673 190.146 56.5062 188.229 53.2061L186.599 50.3756C186.208 50.8321 185.739 51.2235 185.191 51.5365Z" fill="#EE4C33"/>
<path fill-rule="evenodd" clip-rule="evenodd" d="M185.191 51.5365L172.896 58.6454L171.762 59.2976H171.749L171.723 59.3107L171.41 59.4933C170.862 59.8064 170.302 60.0151 169.715 60.1455L171.345 62.976C173.235 66.25 174.096 69.8502 174.017 73.3851C175.843 73.1894 177.655 72.8764 179.454 72.4329C177.929 68.4414 176.143 64.6848 174.317 61.2281C180.862 58.3715 188.242 53.2061 188.242 53.2061L186.612 50.3756C186.208 50.8321 185.739 51.2235 185.191 51.5365Z" fill="#B82D18"/>
<path fill-rule="evenodd" clip-rule="evenodd" d="M191.801 71.7154C188.724 73.4894 185.504 74.859 182.205 75.8242C179.337 76.6721 176.416 77.2069 173.496 77.4547C173.118 79.0983 172.531 80.7027 171.749 82.2158C175.217 82.4897 178.724 82.3201 182.205 81.6679C186.534 80.8592 190.797 79.307 194.839 76.9721C198.881 74.6372 202.349 71.7154 205.218 68.3631C206.808 66.4978 208.216 64.5021 209.429 62.4151C206.534 63.8499 203.914 64.2934 201.567 64.0586C200.224 65.4543 198.79 66.7718 197.251 67.9979C195.543 69.3545 193.731 70.6067 191.801 71.7154Z" fill="white"/>
<path fill-rule="evenodd" clip-rule="evenodd" d="M191.567 71.8459C188.568 73.5546 185.426 74.8721 182.205 75.8243C179.337 76.6721 176.416 77.2069 173.496 77.4548C173.118 79.0983 172.531 80.7027 171.749 82.2158C171.749 82.2158 175.165 82.2028 180.55 80.8984C183.926 76.7895 189.181 73.3068 191.567 71.8459Z" fill="#C3C5CB"/>
<path fill-rule="evenodd" clip-rule="evenodd" d="M187.316 43.5927L191.71 51.2104C193.366 54.08 195.791 57.6541 199.077 59.2585C201.228 60.302 203.888 60.5107 207.134 59.0628C205.517 58.6715 203.94 58.0845 202.453 57.3149C199.22 55.6192 196.404 53.0104 194.448 49.619L189.859 41.6622L186.039 35.049L181.058 26.4269C180.758 25.9052 180.276 25.553 179.728 25.4095C179.181 25.266 178.581 25.3182 178.072 25.6182L176.299 26.6487C177.355 27.1313 178.268 27.94 178.881 29.0096L183.274 36.6403L187.316 43.5927Z" fill="#B82D18"/>
<path fill-rule="evenodd" clip-rule="evenodd" d="M106.715 89.9508C103.938 93.9422 96.1672 108.186 111.5 125.991C126.833 108.186 119.062 93.9292 116.285 89.9508C114.746 90.4726 113.117 90.7204 111.5 90.7204C109.883 90.7204 108.267 90.4595 106.715 89.9508Z" fill="#F69246"/>
<path fill-rule="evenodd" clip-rule="evenodd" d="M102.282 103.386C102.06 109.582 104.068 117.369 111.487 125.991C118.919 117.369 120.913 109.582 120.692 103.386C118.827 120.643 104.173 120.643 102.282 103.386Z" fill="#C95F3E"/>
<path fill-rule="evenodd" clip-rule="evenodd" d="M105.307 124.595C92.9729 107.221 99.844 93.1205 103.104 88.1507C102.934 88.0333 102.751 87.9029 102.582 87.7725C102.126 87.4203 101.682 87.042 101.252 86.6376C98.4359 90.0421 95.2937 93.2509 89.6743 93.6292C89.557 94.0205 89.4527 94.4118 89.3614 94.8031C89.1267 95.7292 88.9312 96.6423 88.7747 97.5293C88.188 100.855 88.0446 104.116 88.2793 107.299C89.1919 119.3 94.3419 120.147 105.307 124.595Z" fill="#F69246"/>
<path fill-rule="evenodd" clip-rule="evenodd" d="M105.307 124.595C101.904 119.808 99.9743 115.269 99.0095 111.108C99.0095 111.108 93.9768 110.195 88.2922 107.325C89.1919 119.3 94.3549 120.147 105.307 124.595Z" fill="#C95F3E"/>
<path fill-rule="evenodd" clip-rule="evenodd" d="M84.2896 107.586C84.0288 104.077 84.1853 100.49 84.8372 96.838C85.0197 95.8467 85.2283 94.8292 85.4891 93.8249C85.5151 93.6944 85.5542 93.577 85.5803 93.4466C83.5985 93.1596 81.3821 92.5857 78.8527 91.6596C78.3833 91.49 77.9791 91.1378 77.7445 90.6552C77.262 89.6639 77.6662 88.4638 78.6571 87.9812C84.0158 85.3463 85.9193 81.5114 87.2362 77.7548C68.9177 87.6942 70.1693 101.495 85.0718 113.169C84.6937 111.33 84.433 109.478 84.2896 107.586Z" fill="#F69246"/>
<path fill-rule="evenodd" clip-rule="evenodd" d="M84.2896 107.586C84.2244 106.699 84.1853 105.812 84.1722 104.925C79.987 102.121 76.0234 98.1293 73.9243 92.5726C72.6466 99.3946 76.7145 106.608 85.0718 113.156C84.6937 111.33 84.433 109.478 84.2896 107.586Z" fill="#C95F3E"/>
<path fill-rule="evenodd" clip-rule="evenodd" d="M69.8955 92.4813C71.7469 80.5722 84.6546 74.3894 89.0876 72.3806C89.6221 71.011 90.248 69.7197 91.0824 68.5588C87.6664 69.2371 84.6677 70.1632 82.0861 71.285C82.0209 71.311 81.9557 71.3502 81.8906 71.3763C78.5659 72.8502 75.9191 74.6633 73.9243 76.7243C70.9647 79.8026 69.4653 83.4549 69.3479 87.3942C69.2828 89.0377 69.4653 90.7334 69.8955 92.4813Z" fill="#F69246"/>
<path fill-rule="evenodd" clip-rule="evenodd" d="M69.8955 92.4813C70.2997 89.8987 71.2254 87.5768 72.464 85.5289C72.3206 83.1419 72.4771 80.5462 73.0377 77.7156C70.6648 80.5723 69.4523 83.8724 69.3479 87.3942C69.2828 89.0378 69.4653 90.7335 69.8955 92.4813Z" fill="#C95F3E"/>
<path fill-rule="evenodd" clip-rule="evenodd" d="M91.6822 77.0765C90.3523 81.1723 88.9311 85.555 84.3809 89.116C92.6861 90.8639 95.9456 86.8464 99.1008 82.9723C102.191 79.1635 105.203 75.4721 111.487 75.4982H111.526C117.81 75.4591 120.809 79.1635 123.912 82.9723C127.054 86.8464 130.327 90.8639 138.632 89.116C134.082 85.555 132.661 81.1723 131.331 77.0765C129.675 71.9633 128.202 67.424 118.228 66.8762C118.071 69.5893 116.846 71.5328 115.216 72.6677C114.095 73.4503 112.804 73.8416 111.526 73.8416C110.248 73.8416 108.958 73.4503 107.836 72.6677C106.207 71.5328 104.994 69.5893 104.825 66.8762C94.8243 67.437 93.351 71.9763 91.6822 77.0765Z" fill="#F69246"/>
<path fill-rule="evenodd" clip-rule="evenodd" d="M101.122 80.5592C103.638 77.7417 106.546 75.4721 111.487 75.4982H111.5H111.513C116.441 75.4721 119.362 77.7417 121.878 80.5592C117.967 75.2503 119.466 71.1806 122.282 69.6023C125.073 68.0501 128.906 71.5589 128.984 71.6372C128.762 71.3111 128.449 70.9067 128.071 70.4763C126.259 68.5197 123.378 67.1631 118.188 66.8762C118.032 69.5893 116.806 71.5328 115.177 72.6677C114.055 73.4503 112.765 73.8416 111.487 73.8416C110.209 73.8416 108.918 73.4503 107.797 72.6677C106.167 71.5328 104.955 69.5893 104.785 66.8762C99.6093 67.1631 96.7148 68.5197 94.9025 70.4763C94.5244 70.9067 94.2115 71.3111 93.9899 71.6372C94.0811 71.5589 97.9013 68.0501 100.691 69.6023C103.534 71.1806 105.02 75.2503 101.122 80.5592Z" fill="#C95F3E"/>
<path fill-rule="evenodd" clip-rule="evenodd" d="M111.487 79.5027C108.058 79.4766 105.828 81.2897 103.834 83.5463C104.199 83.9245 104.59 84.2767 105.007 84.5898C105.437 84.9159 105.881 85.2028 106.35 85.4507C106.428 84.6159 106.663 83.8724 106.832 83.4158C106.871 83.2984 106.963 83.2332 107.08 83.2071C107.197 83.181 107.315 83.2332 107.38 83.3245C109.792 86.1681 113.208 86.1681 115.62 83.3245C115.698 83.2332 115.803 83.1941 115.92 83.2071C116.037 83.2332 116.128 83.2984 116.168 83.4158C116.337 83.8724 116.572 84.6159 116.65 85.4507C117.119 85.2028 117.563 84.9159 117.993 84.5898C118.41 84.2767 118.801 83.9376 119.166 83.5463C117.172 81.2897 114.942 79.4766 111.513 79.5027H111.487Z" fill="#FCE8B5"/>
<path fill-rule="evenodd" clip-rule="evenodd" d="M109.518 79.6983C107.145 80.2331 105.411 81.7462 103.834 83.5463C104.199 83.9245 104.59 84.2767 105.007 84.5898C105.437 84.9159 105.881 85.2028 106.35 85.4507C106.428 84.6159 106.663 83.8724 106.832 83.4158C106.871 83.2984 106.963 83.2332 107.08 83.2071C107.197 83.181 107.315 83.2332 107.38 83.3245C108.293 84.4072 109.362 85.0724 110.457 85.3333C107.836 84.1593 107.093 80.6505 109.518 79.6983Z" fill="#C7A582"/>
<path fill-rule="evenodd" clip-rule="evenodd" d="M119.883 88.1507C123.143 93.1205 130.014 107.221 117.68 124.595C128.645 120.147 133.795 119.3 134.708 107.299C134.942 104.13 134.799 100.869 134.212 97.5293C134.056 96.6423 133.86 95.7292 133.626 94.8031C133.521 94.4118 133.417 94.0205 133.313 93.6292C127.693 93.2509 124.564 90.0421 121.735 86.6376C121.318 87.042 120.874 87.4333 120.405 87.7725C120.236 87.9029 120.066 88.0333 119.883 88.1507Z" fill="#F69246"/>
<path fill-rule="evenodd" clip-rule="evenodd" d="M138.163 96.838C138.815 100.503 138.971 104.09 138.71 107.586C138.567 109.478 138.306 111.33 137.928 113.156C152.831 101.482 154.069 87.6942 135.764 77.7548C137.081 81.4984 138.958 85.3072 144.265 87.9421C144.747 88.1508 145.151 88.5551 145.347 89.0899C145.725 90.1334 145.19 91.2813 144.147 91.6596C141.618 92.5857 139.388 93.1596 137.42 93.4466C137.459 93.577 137.485 93.6944 137.511 93.8249C137.772 94.8292 137.98 95.8467 138.163 96.838Z" fill="#F69246"/>
<path fill-rule="evenodd" clip-rule="evenodd" d="M133.912 72.3806C138.345 74.3894 151.253 80.5592 153.104 92.4813C153.522 90.7465 153.717 89.0377 153.665 87.3942C153.548 83.4549 152.048 79.7896 149.089 76.7243C147.094 74.6633 144.447 72.8502 141.122 71.3763C141.057 71.3502 140.992 71.3241 140.927 71.285C138.332 70.1632 135.347 69.2371 131.931 68.5588C132.752 69.7197 133.378 71.011 133.912 72.3806Z" fill="#F69246"/>
<path fill-rule="evenodd" clip-rule="evenodd" d="M130.457 64.2282C133.886 64.7891 136.963 65.5587 139.727 66.537C139.584 63.3804 139.206 58.241 138.293 53.5844C138.267 53.48 138.241 53.3757 138.228 53.2713C137.876 51.5495 137.446 49.919 136.937 48.4712C135.959 45.758 133.117 43.8797 129.506 42.5884C124.082 40.6579 117.067 40.11 111.513 40.0839C105.959 40.1231 98.9444 40.6579 93.5205 42.5884C89.909 43.8667 87.0667 45.745 86.0888 48.4712C85.5673 49.906 85.1371 51.5495 84.7981 53.2713C84.785 53.3757 84.759 53.48 84.7329 53.5844C83.8072 58.241 83.4421 63.3934 83.2987 66.537C86.0497 65.5717 89.1398 64.7891 92.5688 64.2412C91.9169 61.7629 92.5948 59.6237 93.4032 58.1628C91.4996 56.5584 90.2219 53.6105 89.7134 47.519C89.6222 46.4102 90.4436 45.445 91.5518 45.3537C91.7343 45.3406 91.9038 45.3537 92.0733 45.3798C93.1555 45.4971 99.7136 46.2537 104.094 48.1059C107.106 49.3842 108.54 52.2539 109.088 55.6714C109.57 58.6845 109.336 62.1281 108.905 65.1152C108.593 67.3457 109.192 68.7544 110.131 69.4066C110.548 69.6936 111.031 69.8371 111.539 69.8371C112.035 69.8371 112.53 69.6936 112.947 69.4066C113.886 68.7544 114.486 67.3457 114.173 65.1152C113.743 62.1412 113.521 58.6845 113.99 55.6714C114.525 52.2539 115.972 49.3842 118.984 48.1059C123.769 46.0841 131.148 45.3667 131.161 45.3667C132.257 45.2624 133.234 46.058 133.352 47.1668C133.365 47.2842 133.365 47.4146 133.352 47.532C132.843 53.6235 131.579 56.5584 129.662 58.1758C130.431 59.6237 131.109 61.7499 130.457 64.2282Z" fill="#FCE8B5"/>
<path fill-rule="evenodd" clip-rule="evenodd" d="M84.094 57.328C83.6116 60.8238 83.3899 64.2152 83.2726 66.537C86.0236 65.5718 89.1136 64.7891 92.5426 64.2413C92.5426 64.2282 83.7028 65.0239 84.094 57.328Z" fill="#DBB48F"/>
<path fill-rule="evenodd" clip-rule="evenodd" d="M104.955 40.3578C101.017 40.697 96.9365 41.3622 93.5075 42.5753C89.8959 43.8536 87.0536 45.7319 86.0758 48.4581C85.5803 49.8147 85.1761 51.3539 84.8372 52.9713C86.3626 47.6624 90.1958 51.4321 90.1958 51.4321C89.9872 50.2973 89.8177 49.006 89.6873 47.519C89.596 46.4102 90.4174 45.445 91.5257 45.3537C91.7082 45.3406 91.8777 45.3537 92.0472 45.3798C92.8556 45.4711 96.6757 45.9015 100.379 46.8798C94.2376 43.384 101.252 41.0231 104.955 40.3578Z" fill="#DBB48F"/>
<path fill-rule="evenodd" clip-rule="evenodd" d="M109.192 62.2195C108.801 68.2588 114.186 68.2588 113.795 62.2195C113.873 63.2108 113.99 64.1761 114.121 65.1022C114.434 67.3327 113.834 68.7414 112.895 69.3936C112.478 69.6806 111.995 69.8241 111.5 69.8241C111.005 69.8241 110.509 69.6806 110.105 69.3936C109.166 68.7414 108.566 67.3327 108.879 65.1022C108.997 64.1891 109.114 63.2108 109.192 62.2195Z" fill="#DBB48F"/>
<path fill-rule="evenodd" clip-rule="evenodd" d="M117.706 58.1107C119.662 57.2367 121.422 56.8454 123.013 56.4802C126.011 55.8019 128.11 55.3323 129.023 49.6582C126.663 50.0104 123.091 50.6887 120.483 51.7844C118.997 52.4105 118.228 54.1584 117.889 56.2845C117.797 56.8715 117.745 57.4845 117.706 58.1107Z" fill="#F69246"/>
<path fill-rule="evenodd" clip-rule="evenodd" d="M105.098 56.2975C104.759 54.1583 104.003 52.4235 102.504 51.7974C99.9092 50.7017 96.3367 50.0234 93.9638 49.6712C94.8765 55.3453 96.9756 55.8279 99.9743 56.4932C101.552 56.8454 103.325 57.2497 105.281 58.1237C105.255 57.4845 105.19 56.8714 105.098 56.2975Z" fill="#F69246"/>
<path fill-rule="evenodd" clip-rule="evenodd" d="M105.098 56.2975C104.759 54.1583 104.003 52.4235 102.504 51.7974C101.252 51.2626 99.7657 50.8321 98.3055 50.493C102.204 52.3452 105.411 56.8715 99.4659 56.3888C99.6354 56.428 99.8049 56.4671 99.9744 56.5062C101.552 56.8584 103.325 57.2628 105.281 58.1367C105.255 57.4845 105.19 56.8715 105.098 56.2975Z" fill="#C95F3E"/>
<path fill-rule="evenodd" clip-rule="evenodd" d="M99.857 60.5629C99.5963 60.4976 99.3485 60.4455 99.1008 60.3933C98.3577 60.2237 97.6406 60.0672 96.9756 59.8846C96.4802 60.7324 95.9978 62.102 96.5845 63.6934C97.5493 63.5891 98.5402 63.5108 99.5441 63.4325C99.4137 63.0803 99.3485 62.7021 99.3485 62.3108C99.3355 61.6716 99.5311 61.0716 99.857 60.5629Z" fill="white"/>
<path fill-rule="evenodd" clip-rule="evenodd" d="M123.143 60.5629C123.469 61.0716 123.665 61.6716 123.665 62.3108C123.665 62.7021 123.599 63.0803 123.469 63.4325C124.473 63.4977 125.464 63.5891 126.429 63.6934C127.015 62.102 126.533 60.7324 126.037 59.8846C125.373 60.0672 124.655 60.2237 123.912 60.3933C123.651 60.4455 123.391 60.5107 123.143 60.5629Z" fill="white"/>
<path fill-rule="evenodd" clip-rule="evenodd" d="M74.6023 69.0675C74.3025 67.3327 74.2894 65.1543 75.2803 63.0804C74.9413 63.3673 74.5371 63.8108 74.1982 64.4891C73.8461 65.1935 73.5462 66.1718 73.4159 67.5153C73.4159 67.5675 73.3898 67.6066 73.3637 67.6457L73.3507 67.6588C73.3246 67.6849 73.2855 67.7109 73.2333 67.724C73.1812 67.737 73.1421 67.724 73.0899 67.7109C73.0508 67.6979 73.0117 67.6588 72.9856 67.6196C72.3467 66.4979 72.1251 65.3239 72.2424 64.2021C72.3467 63.2369 72.6857 62.3108 73.2464 61.502C73.794 60.6933 74.5502 59.9889 75.4498 59.4802C76.1147 59.102 76.8579 58.815 77.6663 58.6715C77.588 58.6715 77.5229 58.6715 77.4446 58.6715C75.3585 58.6715 73.4811 59.5194 72.1121 60.8759C70.7431 62.2455 69.9086 64.1239 69.9086 66.2109C69.9086 67.5414 70.2476 68.7805 70.8474 69.8632C71.3559 70.7763 72.0469 71.5719 72.8813 72.2111C73.5332 71.6632 74.2373 71.1415 74.9674 70.6328C74.824 70.1762 74.6936 69.6545 74.6023 69.0675Z" fill="#FCE8B5"/>
<path fill-rule="evenodd" clip-rule="evenodd" d="M74.6023 69.0675C74.3025 67.3327 74.2894 65.1543 75.2803 63.0804C74.9413 63.3673 74.5371 63.8108 74.1982 64.4891C73.8461 65.1935 73.5462 66.1718 73.4159 67.5153C73.4159 67.5675 73.3898 67.6066 73.3637 67.6457L73.3507 67.6588C73.3246 67.6849 73.2855 67.7109 73.2333 67.724C73.1812 67.737 73.1421 67.724 73.0899 67.7109C73.0508 67.6979 73.0117 67.6588 72.9856 67.6196C72.3467 66.4979 72.1251 65.3239 72.2424 64.2021C72.3076 63.5238 72.5032 62.8586 72.8031 62.2455C72.8031 62.2455 69.9217 66.9283 71.5254 70.8937C71.9165 71.3893 72.3728 71.8198 72.8683 72.2111C73.5202 71.6632 74.2242 71.1415 74.9544 70.6328C74.824 70.1762 74.6936 69.6545 74.6023 69.0675Z" fill="#DBB48F"/>
<path fill-rule="evenodd" clip-rule="evenodd" d="M147.72 63.0934C148.698 65.1674 148.685 67.3327 148.398 69.0806C148.293 69.6545 148.163 70.1893 148.033 70.6458C148.776 71.1545 149.467 71.6763 150.119 72.2242C150.953 71.585 151.644 70.7893 152.153 69.8762C152.752 68.7936 153.091 67.5544 153.091 66.224C153.091 64.1369 152.244 62.2586 150.888 60.889C149.519 59.5194 147.641 58.6846 145.555 58.6846C145.477 58.6846 145.412 58.6846 145.334 58.6846C146.142 58.8411 146.885 59.115 147.55 59.4933C148.45 60.0151 149.206 60.7064 149.754 61.5151C150.301 62.3238 150.653 63.2499 150.758 64.2152C150.875 65.337 150.653 66.5109 150.014 67.6327C149.988 67.6718 149.949 67.711 149.91 67.724C149.871 67.737 149.819 67.7501 149.767 67.737C149.728 67.724 149.675 67.711 149.649 67.6718L149.636 67.6588C149.61 67.6197 149.584 67.5805 149.584 67.5283C149.467 66.1848 149.167 65.2065 148.802 64.5022C148.463 63.8239 148.059 63.3804 147.72 63.0934Z" fill="#FCE8B5"/>
<path fill-rule="evenodd" clip-rule="evenodd" d="M111.5 36.0664C116.233 36.0664 121.044 36.1707 125.711 36.3794C130.171 36.5751 134.395 36.8751 138.163 37.2795C139.258 37.3969 140.066 38.3752 139.949 39.4709C139.832 40.5665 138.854 41.3753 137.759 41.2579C137.029 41.1796 136.285 41.1144 135.529 41.0361C137.941 42.5623 139.78 44.5449 140.692 47.1015C140.823 47.4668 140.953 47.832 141.07 48.2103C142.179 45.7972 143.391 41.8188 143.9 35.4925C143.926 35.1533 143.874 34.8533 143.756 34.5924C143.639 34.3316 143.443 34.0968 143.182 33.9011C135.125 27.8096 123.339 24.7573 111.5 24.7573C99.6745 24.7573 87.8751 27.8096 79.8175 33.9011C79.5568 34.0968 79.3612 34.3316 79.2439 34.5924C79.1265 34.8533 79.0744 35.1533 79.1005 35.4925C79.5959 41.8318 80.8215 45.8102 81.9297 48.2103C82.0471 47.832 82.1774 47.4537 82.3078 47.1015C83.2335 44.558 85.0588 42.5753 87.4709 41.0361C86.7147 41.1013 85.9715 41.1796 85.2414 41.2579C84.1462 41.3753 83.1553 40.5665 83.051 39.4709C82.9336 38.3752 83.742 37.3838 84.8372 37.2795C88.6052 36.8882 92.8295 36.5882 97.2885 36.3794C101.956 36.1707 106.767 36.0664 111.5 36.0664Z" fill="#EE4C33"/>
<path fill-rule="evenodd" clip-rule="evenodd" d="M111.5 20.7398C120.835 20.7398 130.21 22.5529 137.993 26.1791C136.976 18.3789 134.199 13.1743 130.157 9.79596C128.163 8.13939 125.829 6.88717 123.221 5.98714C124.603 7.80024 125.659 10.0177 126.259 12.6526C126.507 13.7352 125.829 14.8048 124.76 15.0527C123.678 15.3005 122.608 14.6222 122.361 13.5526C121.5 9.76988 119.453 7.135 116.95 5.648C115.281 4.65666 113.39 4.16099 111.5 4.16099V4.14795C109.609 4.14795 107.719 4.64362 106.05 5.648C103.547 7.14805 101.513 9.78292 100.639 13.5526C100.392 14.6353 99.3224 15.3005 98.2403 15.0527C97.1581 14.8048 96.4932 13.7352 96.7409 12.6526C97.3407 10.0177 98.4098 7.80024 99.7788 5.98714C97.1712 6.88717 94.8374 8.12634 92.8425 9.79596C88.8007 13.1743 86.0236 18.3789 85.0067 26.1791C92.7904 22.5529 102.152 20.7398 111.5 20.7398Z" fill="#EE4C33"/>
<path fill-rule="evenodd" clip-rule="evenodd" d="M111.5 4.13495C109.609 4.13495 107.719 4.63062 106.05 5.635C103.547 7.13505 101.513 9.76992 100.639 13.5396C100.639 13.5396 104.551 5.62195 111.5 5.54369C118.449 5.62195 122.361 13.5396 122.361 13.5396C121.487 9.75688 119.453 7.122 116.95 5.635C115.281 4.64366 113.39 4.13495 111.5 4.13495Z" fill="white"/>
<path fill-rule="evenodd" clip-rule="evenodd" d="M89.922 12.8483C87.4578 16.0832 85.7499 20.4268 84.9937 26.1791C89.2962 24.1834 94.0681 22.7356 99.0487 21.8355C83.051 24.9921 89.896 12.9135 89.922 12.8483Z" fill="#B82D18"/>
<path fill-rule="evenodd" clip-rule="evenodd" d="M96.7279 12.6526C97.3276 10.0178 98.3967 7.80029 99.7657 5.98718C97.1581 6.88721 94.8243 8.12638 92.8295 9.796C91.643 10.7743 90.5739 11.9222 89.6221 13.2396C92.0472 9.92644 94.9677 8.70032 95.9456 9.09163C96.9365 9.48295 96.7279 12.6526 96.7279 12.6526Z" fill="#B82D18"/>
<path fill-rule="evenodd" clip-rule="evenodd" d="M117.68 124.595C121.083 119.808 123.013 115.269 123.977 111.108C123.977 111.108 129.01 110.195 134.695 107.325C133.795 119.3 128.645 120.147 117.68 124.595Z" fill="#C95F3E"/>
<path fill-rule="evenodd" clip-rule="evenodd" d="M138.71 107.586C138.776 106.699 138.815 105.812 138.828 104.925C143.013 102.121 146.977 98.1293 149.076 92.5726C150.353 99.3946 146.285 106.608 137.928 113.156C138.293 111.33 138.567 109.478 138.71 107.586Z" fill="#C95F3E"/>
<path fill-rule="evenodd" clip-rule="evenodd" d="M153.104 92.4683C152.7 89.8856 151.775 87.5638 150.536 85.5159C150.679 83.1288 150.523 80.5331 149.962 77.7026C152.335 80.5592 153.548 83.8593 153.652 87.3812C153.717 89.0377 153.522 90.7334 153.104 92.4683Z" fill="#C95F3E"/>
<path fill-rule="evenodd" clip-rule="evenodd" d="M113.469 79.6983C115.842 80.2331 117.576 81.7462 119.153 83.5463C118.788 83.9245 118.397 84.2767 117.98 84.5898C117.55 84.9159 117.106 85.2028 116.637 85.4507C116.559 84.6159 116.324 83.8724 116.155 83.4158C116.115 83.2984 116.024 83.2332 115.907 83.2071C115.79 83.181 115.672 83.2332 115.607 83.3245C114.694 84.4072 113.625 85.0724 112.53 85.3333C115.164 84.1593 115.907 80.6505 113.469 79.6983Z" fill="#C7A582"/>
<path fill-rule="evenodd" clip-rule="evenodd" d="M148.398 69.0675C148.698 67.3327 148.711 65.1543 147.72 63.0804C148.059 63.3673 148.463 63.8108 148.802 64.4891C149.154 65.1935 149.467 66.1718 149.584 67.5153C149.584 67.5675 149.61 67.6066 149.636 67.6457L149.649 67.6588C149.675 67.6849 149.715 67.7109 149.767 67.724C149.819 67.737 149.858 67.724 149.91 67.7109C149.949 67.6979 149.988 67.6588 150.014 67.6196C150.653 66.4979 150.875 65.3239 150.758 64.2021C150.692 63.5238 150.497 62.8586 150.197 62.2455C150.197 62.2455 153.078 66.9283 151.475 70.8937C151.084 71.3893 150.627 71.8198 150.132 72.2111C149.48 71.6632 148.776 71.1415 148.046 70.6328C148.163 70.1762 148.293 69.6545 148.398 69.0675Z" fill="#DBB48F"/>
<path fill-rule="evenodd" clip-rule="evenodd" d="M118.032 40.3578C121.97 40.697 126.05 41.3622 129.479 42.5753C133.091 43.8536 135.933 45.7319 136.911 48.4581C137.407 49.8147 137.811 51.3539 138.15 52.9713C136.624 47.6624 132.791 51.4321 132.791 51.4321C133 50.2973 133.169 49.006 133.3 47.519C133.391 46.4102 132.569 45.445 131.461 45.3537C131.279 45.3406 131.109 45.3537 130.94 45.3798C130.131 45.4711 126.311 45.9015 122.608 46.8798C128.749 43.384 121.735 41.0231 118.032 40.3578Z" fill="#DBB48F"/>
<path fill-rule="evenodd" clip-rule="evenodd" d="M136.676 29.988C139.023 31.1098 141.214 32.4141 143.182 33.9011C143.443 34.0968 143.639 34.3316 143.756 34.5925C143.874 34.8534 143.926 35.1534 143.9 35.4925C143.404 41.8318 142.179 45.8102 141.07 48.2103C140.953 47.832 140.823 47.4538 140.692 47.1016C139.767 44.558 137.941 42.5754 135.529 41.0362C136.285 41.1014 137.029 41.1797 137.759 41.2579C138.854 41.3753 139.845 40.5666 139.949 39.4709C140.066 38.3752 139.258 37.3839 138.163 37.2795C134.395 36.8882 130.171 36.5882 125.711 36.3795C121.044 36.1708 116.233 36.0664 111.5 36.0664C106.767 36.0664 101.956 36.1708 97.2885 36.3795C92.8295 36.5752 88.6052 36.8752 84.8372 37.2795C83.742 37.3969 82.9336 38.3752 83.051 39.4709C83.1683 40.5666 84.1462 41.3753 85.2414 41.2579C85.9715 41.1797 86.7147 41.1144 87.4709 41.0362C85.0588 42.5623 83.2205 44.545 82.3078 47.1016C82.1774 47.4668 82.0471 47.832 81.9297 48.2103C80.8215 45.7972 79.6089 41.8188 79.1005 35.4925C79.0744 35.1534 79.1265 34.8534 79.2439 34.5925C79.3612 34.3316 79.5568 34.0968 79.8175 33.9011C81.7863 32.4141 83.9636 31.1098 86.3235 29.988C77.4055 37.0447 97.4711 34.462 99.8179 33.9794C99.8179 33.9794 94.6418 31.9837 93.4684 30.3271C103.09 34.5012 119.897 34.5012 129.532 30.3271C128.358 31.9707 123.182 33.9794 123.182 33.9794C125.529 34.462 145.595 37.0447 136.676 29.988Z" fill="#B82D18"/>
<path fill-rule="evenodd" clip-rule="evenodd" d="M126.259 12.6526C125.659 10.0177 124.603 7.80024 123.234 6.00018C125.842 6.90021 128.176 8.13938 130.17 9.809C131.357 10.7873 132.426 11.9352 133.378 13.2526C130.953 9.93944 128.032 8.71332 127.054 9.10463C126.064 9.48291 126.259 12.6526 126.259 12.6526Z" fill="#B82D18"/>
<path fill-rule="evenodd" clip-rule="evenodd" d="M133.078 12.8483C135.542 16.0832 137.25 20.4268 138.006 26.1791C133.704 24.1834 128.932 22.7356 123.951 21.8355C139.949 24.9921 133.104 12.9135 133.078 12.8483Z" fill="#B82D18"/>
<path fill-rule="evenodd" clip-rule="evenodd" d="M138.906 57.328C139.388 60.8238 139.61 64.2152 139.727 66.537C136.976 65.5718 133.886 64.7891 130.457 64.2413C130.457 64.2282 139.284 65.0239 138.906 57.328Z" fill="#DBB48F"/>
<path fill-rule="evenodd" clip-rule="evenodd" d="M117.902 56.2975C118.241 54.1583 118.997 52.4235 120.496 51.7974C121.748 51.2626 123.234 50.8321 124.695 50.493C120.796 52.3452 117.589 56.8715 123.534 56.3888C123.365 56.428 123.195 56.4671 123.026 56.5062C121.448 56.8584 119.675 57.2628 117.719 58.1367C117.745 57.4845 117.797 56.8715 117.902 56.2975Z" fill="#C95F3E"/>
<path fill-rule="evenodd" clip-rule="evenodd" d="M111.5 24.7573C99.6745 24.7573 87.875 27.8096 79.8175 33.9011C79.6871 33.9924 79.5828 34.0968 79.4916 34.2142C96.6627 23.6095 126.337 23.6095 143.508 34.2142C143.417 34.1098 143.3 34.0055 143.182 33.9011C135.112 27.8096 123.326 24.7573 111.5 24.7573Z" fill="white"/>
</g>
<defs>
<clipPath id="clip0_268_24">
<rect width="209" height="131" fill="white" transform="translate(7)"/>
</clipPath>
</defs>
</svg>
